<svg width="502" height="502" viewBox="0 0 502 502" fill="none" xmlns="http://www.w3.org/2000/svg">
<path fill-rule="evenodd" clip-rule="evenodd" d="M251 450.218C361.025 450.218 450.218 361.025 450.218 251C450.218 140.975 361.025 51.7822 251 51.7822C140.975 51.7822 51.7822 140.975 51.7822 251C51.7822 361.025 140.975 450.218 251 450.218ZM251 502C389.623 502 502 389.623 502 251C502 112.377 389.623 0 251 0C112.377 0 0 112.377 0 251C0 389.623 112.377 502 251 502Z" fill="#FFF0EB"/>
<path d="M61.6587 379.86L218.751 30.2063H283.148L435.43 379.86L387.461 402.751L276.762 157.936C274.633 152.614 271.972 146.227 268.779 138.776C265.585 130.971 262.215 122.988 258.667 114.827C255.473 106.667 252.28 98.5061 249.087 90.3456C246.248 82.1851 243.765 74.9116 241.636 68.5252L257.07 67.993C254.232 75.4438 251.216 83.2495 248.023 91.41C245.184 99.5705 242.168 107.731 238.975 115.892C235.782 123.697 232.589 131.326 229.395 138.776C226.202 146.227 223.186 153.323 220.348 160.065L110.181 402.751L61.6587 379.86ZM124.018 313.34L146.371 257.991H348.61L363.511 313.34H124.018Z" fill="#FFF0EB"/>
</svg>
